#!OML:ASF H:\Terrain\Patient Classification 1\Animal1\Tuesday\Animal1.ASF
:FULLY-SPECIFIED
:DEGREES
1374
root 16.3205 14.6608 -27.3922 -155.302 -179.118 -171.799
lowerback 34.2484 -2.08238 13.6038
upperback 14.0483 0.702102 -12.3955
thorax -1.99062 1.56079 -21.8937
lowerneck -0.0426602 -3.5731 2.57934
upperneck -26.8883 -1.64941 12.7443
head -8.23142 -2.1984 3.99679
rclavicle -3.81667e-014 3.77691e-014
rhumerus 22.4692 -2.17482 -43.5856
rradius 44.3683
rwrist -41.5575
rhand -17.5901 14.4703
rfingers 7.12502
rthumb 8.66589 -15.3318
lclavicle -3.81667e-014 3.77691e-014
lhumerus -0.0285556 21.6992 7.48685
lradius 30.4641
lwrist -9.46
lhand 12.5614 59.778
lfingers 7.12502
lthumb 37.5515 -994.302
rfemur -64.3186 -13.8179 5.98469
rtibia 57.0684
rfoot -12.1758 -27.8534
rtoes 25.7793
lfemur -59.2274 9.99363 -22.6632
ltibia 42.4451
lfoot -10.4965 0.350814
ltoes -27.0041
1375
root 16.2891 14.6436 -27.3861 -155.022 -179.039 -171.634
lowerback 34.2114 -2.12922 13.9747
upperback 14.1902 0.742688 -12.5073
thorax -1.79214 1.64148 -22.2942
lowerneck -0.587932 -3.63424 2.67548
upperneck -27.1909 -1.6055 13.2033
head -8.23769 -2.2241 4.13841
rclavicle 7.95139e-015 5.64548e-014
rhumerus 22.5303 1.15069 -44.0297
rradius 46.0076
rwrist -41.5804
rhand -16.4188 14.5591
rfingers 7.12502
rthumb 9.79611 -15.1931
lclavicle 7.95139e-015 5.64548e-014
lhumerus 0.63333 22.3934 6.6203
lradius 29.3183
lwrist -8.91211
lhand 11.9465 60.568
lfingers 7.12502
lthumb 36.9702 -993.36
rfemur -64.8366 -13.9818 6.0019
rtibia 57.3305
rfoot -11.7722 -27.5242
rtoes 25.208
lfemur -59.6025 10.1788 -22.8758
ltibia 42.5549
lfoot -10.4814 -0.0608822
ltoes -25.5007
1376
root 16.2594 14.6256 -27.3793 -154.922 -178.918 -171.356
lowerback 34.3944 -2.21306 14.3529
upperback 14.2633 0.756958 -12.6726
thorax -1.76529 1.69049 -22.7658
lowerneck -0.674799 -3.72168 3.10616
upperneck -27.4896 -1.62366 13.3361
head -8.33919 -2.29961 4.1261
rclavicle -3.81667e-014 4.57205e-014
rhumerus 22.268 4.88218 -44.3082
rradius 48.0016
rwrist -41.3468
rhand -17.07 14.8573
rfingers 7.12502
rthumb 9.16784 -14.9234
lclavicle -3.81667e-014 4.57205e-014
lhumerus 0.826525 23.4462 6.17358
lradius 28.7223
lwrist -9.16239
lhand 11.3803 61.2624
lfingers 7.12502
lthumb 36.4343 -992.529
rfemur -65.1661 -14.1362 5.81626
rtibia 57.6176
rfoot -11.2754 -27.3193
rtoes 24.616
lfemur -59.8034 10.3075 -23.1753
ltibia 42.6966
lfoot -10.2686 -0.756421
ltoes -22.1398
1377
root 16.2278 14.6075 -27.3773 -154.831 -178.781 -171.234
lowerback 34.556 -2.07327 13.9532
upperback 14.5366 0.855125 -12.4278
thorax -1.47916 1.77108 -22.206
lowerneck -1.88138 -3.67678 3.74065
upperneck -27.5936 -1.68777 12.9124
head -8.18052 -2.325 3.8514
rclavicle -2.22639e-014 -2.8625e-014
rhumerus 23.171 8.91768 -43.1542
rradius 50.0454
rwrist -41.8188
rhand -18.7215 15.2139
rfingers 7.12502
rthumb 7.57396 -14.6305
lclavicle -2.22639e-014 -2.8625e-014
lhumerus 0.523903 26.0012 6.48975
lradius 28.2118
lwrist -10.758
lhand 11.0571 61.9135
lfingers 7.12502
lthumb 36.1283 -991.802
rfemur -65.5795 -14.218 5.82694
rtibia 58.0853
rfoot -10.6516 -27.2765
rtoes 23.0532
lfemur -60.0412 10.5135 -23.3121
ltibia 42.8806
lfoot -9.96348 -1.17545
ltoes -21.6651
1378
root 16.1935 14.5839 -27.3738 -154.624 -178.599 -171.08
lowerback 34.567 -2.24098 14.3268
upperback 14.7125 0.736604 -12.6699
thorax -1.33624 1.77613 -22.7267
lowerneck -2.40898 -3.67012 4.00683
upperneck -27.7609 -1.58989 13.2494
head -8.15599 -2.32619 3.9142
rclavicle -7.79236e-014 1.16885e-013
rhumerus 23.8995 12.8608 -42.2197
rradius 52.1262
rwrist -43.0438
rhand -19.1828 15.1226
rfingers 7.12502
rthumb 7.12867 -14.7374
lclavicle -7.79236e-014 1.16885e-013
lhumerus 0.673865 24.9874 4.84083
lradius 27.5095
lwrist -9.35819
lhand 11.0555 63.1487
lfingers 7.12502
lthumb 36.1268 -990.566
rfemur -66.1582 -14.4422 5.95831
rtibia 58.4842
rfoot -9.94313 -27.305
rtoes 20.0928
lfemur -60.3818 10.7859 -23.5312
ltibia 43.0597
lfoot -10.0042 -1.2235
ltoes -23.6568
1379
root 16.1352 14.5166 -27.4099 -153.466 -179.201 -170.364
lowerback 33.673 -2.64485 14.9023
upperback 14.5924 0.283618 -12.9683
thorax -1.34173 1.56694 -23.3467
lowerneck -1.96555 -3.68382 4.01463
upperneck -28.2155 -1.34581 13.8789
head -8.40561 -2.30324 4.15387
rclavicle -3.65764e-014 1.40342e-013
rhumerus 24.3194 16.6822 -41.809
rradius 54.204
rwrist -43.7471
rhand -18.5198 14.6645
rfingers 7.12502
rthumb 7.76862 -15.1728
lclavicle -3.65764e-014 1.40342e-013
lhumerus 0.951071 24.0044 3.41725
lradius 26.8977
lwrist -8.95688
lhand 11.2026 64.1654
lfingers 7.12502
lthumb 36.266 -1170.42
rfemur -67.8763 -15.5218 5.92795
rtibia 59.1337
rfoot -9.96013 -27.3334
rtoes 18.7373
lfemur -62.1111 10.4043 -24.359
ltibia 43.2204
lfoot -9.69561 -1.69195
ltoes -24.7195
1380
root 16.1168 14.5441 -27.3699 -154.393 -178.68 -170.808
lowerback 34.7384 -2.61086 15.0842
upperback 15.0355 0.504196 -12.9261
thorax -1.12519 1.77365 -23.4715
lowerneck -2.77353 -3.60061 5.0774
upperneck -28.4458 -1.26689 13.5536
head -8.38992 -2.33374 3.85104
rclavicle 1.90833e-014 -7.55382e-014
rhumerus 25.3183 19.808 -41.0107
rradius 55.9739
rwrist -43.3402
rhand -18.1039 14.8963
rfingers 7.12502
rthumb 8.17008 -14.9258
lclavicle 1.90833e-014 -7.55382e-014
lhumerus 1.11536 24.9741 3.14399
lradius 26.4589
lwrist -10.3709
lhand 11.4697 64.2811
lfingers 7.12502
lthumb 36.5189 -1170.47
rfemur -66.9884 -15.0319 6.27737
rtibia 59.3187
rfoot -9.98901 -26.8681
rtoes 16.8452
lfemur -60.8452 10.9558 -23.7019
ltibia 43.3368
lfoot -9.90326 -1.46186
ltoes -23.8691
1381
root 16.0857 14.5444 -27.3513 -154.594 -178.456 -170.987
lowerback 34.9566 -2.8085 15.3112
upperback 15.2976 0.350911 -12.8918
thorax -0.968158 1.75034 -23.5012
lowerneck -3.08134 -3.46486 4.97841
upperneck -28.6342 -1.004 13.8395
head -8.41059 -2.22441 3.95737
rclavicle 7.31528e-014 -1.03368e-013
rhumerus 26.9177 23.363 -40.0001
rradius 57.6558
rwrist -43.0177
rhand -18.0867 15.4513
rfingers 7.12502
rthumb 8.1867 -14.3701
lclavicle 7.31528e-014 -1.03368e-013
lhumerus 0.768836 26.8539 3.05259
lradius 25.9051
lwrist -13.1522
lhand 11.5883 63.9651
lfingers 7.12502
lthumb 36.6312 -1170.12
rfemur -67.0207 -14.9604 6.6285
rtibia 59.6522
rfoot -9.44014 -26.6145
rtoes 14.1067
lfemur -60.6113 11.3491 -23.4877
ltibia 43.4891
lfoot -9.99124 -1.46376
ltoes -23.4487
1382
root 16.0495 14.5245 -27.3485 -154.237 -178.052 -170.737
lowerback 34.5098 -2.69937 14.7954
upperback 15.5169 0.285951 -12.7965
thorax -0.604836 1.73782 -23.0154
lowerneck -3.39002 -3.24358 5.08195
upperneck -28.8729 -0.689492 13.7664
head -8.46285 -2.08276 3.9042
rclavicle -1.59028e-014 -2.38542e-014
rhumerus 29.1299 26.8511 -37.1713
rradius 59.9323
rwrist -44.5432
rhand -18.0928 15.6098
rfingers 7.12502
rthumb 8.18076 -14.2119
lclavicle -1.59028e-014 -2.38542e-014
lhumerus 0.0621299 25.2301 1.6674
lradius 25.5894
lwrist -12.4519
lhand 11.6811 64.6965
lfingers 7.12502
lthumb 36.719 -1170.83
rfemur -67.8519 -15.0472 6.61036
rtibia 59.9509
rfoot -8.90494 -26.3777
rtoes 11.7178
lfemur -61.0972 11.7148 -23.9346
ltibia 43.6055
lfoot -9.99167 -1.31635
ltoes -24.6547
1383
root 16.0129 14.497 -27.353 -153.676 -177.407 -170.638
lowerback 34.1219 -2.5317 14.7367
upperback 15.6509 0.396044 -13.0907
thorax -0.280906 1.85444 -23.438
lowerneck -3.80174 -3.12802 6.06282
upperneck -29.0299 -0.485269 13.7397
head -8.49383 -2.08379 3.72079
rclavicle -1.74931e-014 -2.78299e-014
rhumerus 30.5023 29.3524 -36.1915
rradius 61.8215
rwrist -45.2043
rhand -17.6109 15.818
rfingers 7.12502
rthumb 8.64584 -13.985
lclavicle -1.74931e-014 -2.78299e-014
lhumerus 0.297614 25.7988 1.25415
lradius 25.3533
lwrist -14.3509
lhand 11.6237 64.5234
lfingers 7.12502
lthumb 36.6647 -1170.67
rfemur -69.1027 -14.985 6.79821
rtibia 60.3619
rfoot -8.38463 -26.0609
rtoes 9.91246
lfemur -61.8437 12.2286 -24.2649
ltibia 43.8065
lfoot -9.89094 -1.28649
ltoes -24.4718
